<?xml version="1.0" encoding="UTF-8"?><svg id="Layer_2" xmlns="http://www.w3.org/2000/svg" viewBox="0 0 602.03 960.06"><g id="Layer_1-2"><path d="M0,316.91V959.96c82.94,3.16,156.33-62.8,157.66-145.19,2.26-139.65,1.59-279.37,.25-419.05-.46-47.7-28.73-74.7-76.19-78.44-26.32-2.07-52.93-.37-81.72-.37Z"/><path d="M118.36,239.01c82.62,36.4,117.18,92.66,122.51,172.89,3.33,50.12,42.32,70.45,90.51,64.95,46.2-5.27,68.79-35.79,70.21-80.72,2.33-73.79-55.14-145.78-130.27-155.96-45.97-6.23-93.47-1.15-152.96-1.15Z"/><path d="M441.23,957.93c86.47,7.5,160.32-65.05,160.51-156.03,.53-256.4,.21-512.81,.07-769.22,0-10.98-1.52-21.96-2.3-32.59-87.75-2.95-157.9,66.81-158.13,155.59-.47,186.93-.15,373.87-.15,560.81,0,80.6,0,161.21,0,241.44Z"/></g></svg>